<?xml version="1.0" encoding="UTF-8" standalone="no"?>
<!-- Created with Inkscape (http://www.inkscape.org/) -->

<svg
   width="400"
   height="200"
   viewBox="0 0 105.83333 52.916665"
   version="1.1"
   id="svg1"
   xmlns="http://www.w3.org/2000/svg"
   xmlns:svg="http://www.w3.org/2000/svg">
  <defs
     id="defs1">
    <rect
       x="90.375839"
       y="73.385704"
       width="103.29807"
       height="30.475504"
       id="rect1" />
  </defs>
  <g
     id="layer1">
    <path
       style="font-size:24.8572px;line-height:0.9;font-family:Wedges;-inkscape-font-specification:Wedges;white-space:pre;fill:#f4f4f4"
       d="m 97.65816,97.097233 q -2.038291,0 -3.72858,-1.367146 -1.665433,-1.392003 -2.684578,-3.703723 -0.994288,-2.336577 -0.994288,-5.170298 0,-2.808864 0.994288,-5.14544 1.019145,-2.336577 2.684578,-3.703723 1.690289,-1.392003 3.72858,-1.392003 2.03829,0 3.70372,1.392003 1.69029,1.367146 2.68458,3.703723 0.99429,2.336576 0.99429,5.14544 0,2.833721 -0.99429,5.170298 -0.99429,2.31172 -2.68458,3.703723 -1.66543,1.367146 -3.70372,1.367146 z m 0.04971,-8.103448 q 0.372858,0 0.62143,-0.571715 0.248572,-0.596573 0.248572,-1.441718 0,-0.820287 -0.248572,-1.41686 -0.248572,-0.596573 -0.62143,-0.596573 -0.348001,0 -0.62143,0.596573 -0.248572,0.596573 -0.248572,1.41686 0,0.845145 0.248572,1.441718 0.273429,0.571715 0.62143,0.571715 z m 11.956326,7.780304 q 0.84514,0 1.59086,-0.447429 0.77057,-0.472287 1.218,-1.416861 0.39771,-1.143431 0.39771,-2.112862 v -0.298286 q 0,-0.372858 0.0249,-0.62143 l 0.12429,-0.04972 q 0.27343,0.472287 1.46657,1.963719 1.26772,1.615718 1.91401,2.187434 0.96943,0.720859 1.914,0.720859 1.09372,0 1.91401,-0.770574 0.84514,-0.79543 0.84514,-1.839432 0,-0.62143 -0.37286,-1.292575 -1.26771,-1.789718 -1.914,-2.560292 -0.72086,-0.870002 -0.72086,-1.143431 0,-0.174 0.44743,-0.546858 0.47229,-0.372858 1.29257,-1.317432 1.34229,-1.764861 1.34229,-3.90258 0,-2.212291 -1.49143,-4.17601 -1.46657,-1.988576 -4.49915,-2.610006 -1.46658,-0.223715 -2.93315,-0.223715 -0.89486,0 -1.78972,0.04971 -1.044,0.04971 -1.91401,0.472286 -0.84514,0.422573 -1.392,1.218003 -0.522,0.770573 -0.522,1.963719 l -0.0497,8.202876 q 0,0.770573 0,1.118574 0.0249,0.323144 0.0249,0.546859 0,0.198857 0,0.546858 0.0249,0.323144 0.0249,3.032579 0,0.174 0.0746,0.472286 0.0746,0.27343 0.12429,0.497144 0.29828,1.193146 1.11857,1.764862 0.82029,0.571715 1.74001,0.571715 z m 3.828,-11.061454 q -0.24857,-0.04971 -0.24857,-1.218003 0,-1.789718 0.27343,-1.789718 h 0.0497 q 0.348,0 0.62143,0.546858 0.27343,0.522001 0.27343,0.944574 0,0.571715 -0.27343,1.019145 -0.24858,0.44743 -0.69601,0.497144 z m 12.03087,11.086311 q 0.87,0 1.64058,-0.323143 0.77057,-0.348001 1.24286,-1.24286 0.49714,-0.894859 0.49714,-2.535435 0.0994,-2.585149 0.0994,-5.667441 0,-5.543156 -0.12429,-7.854876 -0.0994,-1.193145 -0.99428,-1.963719 -0.87001,-0.79543 -2.16258,-0.79543 -1.29257,0 -2.11286,0.820288 -0.82029,0.820287 -0.94458,2.137719 -0.0497,0.372858 -0.0746,0.745716 -0.0249,0.348001 -0.0497,0.894859 0,0.546858 0,1.590861 l 0.0746,9.545165 -0.0249,0.671144 q 0,1.789719 0.62143,2.883436 0.62143,1.093716 2.31172,1.093716 z m 12.37891,-0.04971 q 1.78971,0 3.45515,-0.870002 1.69029,-0.894859 2.75915,-2.610006 1.09371,-1.740004 1.09371,-4.300296 0,-0.770573 -0.27343,-1.441717 -0.47228,-0.994288 -1.26771,-1.218003 -0.79543,-0.248572 -1.56601,-0.248572 h -0.54686 l -0.91971,0.07457 q -0.99429,0.09943 -1.54115,0.223715 -0.64629,0.198858 -1.09372,0.795431 -0.42257,0.596572 -0.42257,1.317431 0,0.820288 0.74572,1.516289 0.12428,0.09943 0.24857,0.323144 0.12429,0.223715 0.12429,0.44743 0,0.198857 -0.0994,0.298286 -0.0994,0.07457 -0.32315,0.124286 -0.44743,0 -0.99428,-0.79543 -0.52201,-0.89486 -0.52201,-2.386292 0,-1.044002 0.22372,-2.137719 0.24857,-1.118574 0.82029,-1.889147 0.57171,-0.770573 1.566,-0.770573 0.74572,0 1.74001,0.671144 0.37285,0.223715 0.82028,0.223715 0.74572,0 1.36715,-0.546859 0.82029,-0.720858 0.82029,-2.013433 0,-2.03829 -1.86429,-3.529722 -1.83944,-1.491432 -4.22573,-1.491432 -1.59086,0 -3.15686,0.870002 -1.56601,0.845145 -2.73429,2.808863 -1.81458,3.156865 -1.81458,6.736302 0,2.510577 0.84514,4.648296 0.84515,2.13772 2.26201,3.480008 0.91972,0.845145 2.06315,1.267718 1.16829,0.422572 2.41115,0.422572 z m 11.40945,0.04971 q 0.87,0 1.64057,-0.323143 0.77058,-0.348001 1.24286,-1.24286 0.49715,-0.894859 0.49715,-2.535435 0.0994,-2.585149 0.0994,-5.667441 0,-5.543156 -0.12429,-7.854876 -0.0994,-1.193145 -0.99429,-1.963719 -0.87,-0.79543 -2.16257,-0.79543 -1.29258,0 -2.11286,0.820288 -0.82029,0.820287 -0.94458,2.137719 -0.0497,0.372858 -0.0746,0.745716 -0.0249,0.348001 -0.0497,0.894859 0,0.546858 0,1.590861 l 0.0746,9.545165 -0.0249,0.671144 q 0,1.789719 0.62143,2.883436 0.62143,1.093716 2.31172,1.093716 z m 20.23378,0.323144 q 1.36714,0 2.01343,-0.745716 0.67115,-0.770573 0.89486,-2.560292 0.22372,-1.814575 0.22372,-4.921725 0,-4.200867 -0.0249,-5.667442 l 0.0249,-3.703723 q 0,-1.019145 -0.94458,-1.938862 -0.91971,-0.944573 -2.262,-0.944573 -2.41115,0 -3.13201,2.460863 -0.39772,1.392003 -0.47229,5.070868 0,0.671145 -0.37286,0.745717 -0.174,0 -0.42257,-0.323144 l -0.67114,-0.919717 q -3.97715,-5.642584 -5.02116,-6.487729 -0.77057,-0.546858 -1.74,-0.546858 -0.62143,0 -1.19315,0.323143 -0.57171,0.298287 -0.94457,1.019146 -0.37286,0.720858 -0.39772,1.963718 -0.0249,0 -0.0497,1.814576 0,1.814576 -0.0249,4.275439 0,2.436005 0,4.374867 0,2.734292 0.0249,2.734292 0,0.720859 0.22372,1.665432 0.54685,2.31172 2.98286,2.31172 1.54115,0 2.28686,-0.944574 0.77057,-0.96943 0.77057,-2.187433 0,-1.06886 0.12429,-3.206579 v -0.124286 q 0,-0.124286 0.0746,-0.298287 0.0994,-0.174 0.22372,-0.174 0.0994,0 0.19885,0.09943 0.94458,0.994288 1.74001,2.187434 l 0.74571,1.019145 q 0.77058,1.093717 2.11287,2.311719 1.36714,1.193146 3.00772,1.317432 z m 10.63884,-0.174 q 2.78401,-0.07457 4.54887,-1.019146 1.78972,-0.96943 2.63486,-2.48572 0.84515,-1.516289 0.84515,-3.132007 0,-1.86429 -1.04401,-3.529722 -1.26771,-1.988576 -3.87772,-2.659721 -0.91971,-0.223715 -1.71515,-0.671144 -0.79543,-0.44743 -0.87,-1.491432 0.0249,-0.248572 0.19886,-0.44743 0.174,-0.198858 0.348,-0.198858 0.22372,0.04971 0.348,0.397716 0.12429,0.348 0.62143,1.044002 0.67115,0.894859 1.86429,0.894859 0.67115,0 1.26772,-0.323143 0.62143,-0.323144 0.94457,-0.919717 0.32315,-0.62143 0.32315,-1.292574 0,-1.019145 -0.62143,-1.988576 -0.59658,-0.994288 -1.61572,-1.665433 -1.56601,-0.944573 -3.40544,-0.944573 -2.11286,0 -4.05172,1.267717 -1.91401,1.267717 -2.65972,3.877723 -0.174,0.696002 -0.174,1.292575 0,3.10715 4.27544,5.244869 0.47228,0.273429 0.64628,0.397715 1.54115,1.044003 1.54115,1.740004 0,0.248572 -0.19886,0.397715 -0.174,0.124286 -0.42257,0.124286 -0.37286,0 -0.67114,-0.323143 -1.59087,-1.69029 -2.93315,-1.69029 -1.01915,0 -1.74001,0.770573 -0.696,0.745716 -0.696,1.963719 0,1.938862 1.93886,3.927438 1.14343,1.044002 3.38058,1.342289 0.82029,0.09943 0.96943,0.09943 z"
       id="text1"
       transform="matrix(0.73799288,0,0,0.73799288,-64.713097,-48.299158)"
       aria-label="Origins" />
    <path
       d="m 28.750176,47.36548 q 4.446068,0 6.60055,-2.624551 1.860689,-2.252413 1.880275,-5.679998 0,-1.939034 -0.783448,-3.740965 -0.783448,-1.80193 -2.52662,-2.93793 -1.723586,-1.136 -4.563585,-1.175172 -1.018482,0 -1.841103,0.861793 -0.803034,0.842206 -0.881379,2.056551 -0.05876,1.468965 -0.05876,5.033654 l 0.01959,2.565792 q 0,2.546206 0.01959,2.859585 0.05876,0.587586 0.332966,1.233931 0.274206,0.626758 0.744275,1.096827 0.470069,0.450483 1.057655,0.450483 z m 2.565792,-6.385102 q -0.05876,0 -0.05876,-0.01959 0.01959,-0.235034 0.01959,-3.466758 0.01959,-0.05876 0.07834,-0.05876 0.137103,0 0.372137,0.176276 0.254621,0.176275 0.450483,0.567999 0.195862,0.391725 0.195862,1.077242 0,0.646344 -0.215448,1.038068 -0.215448,0.372138 -0.489655,0.528828 -0.254621,0.156689 -0.352552,0.156689 z m 9.303463,6.208826 q 0.685517,0 1.29269,-0.254621 0.607172,-0.274207 0.97931,-0.97931 0.391724,-0.705103 0.391724,-1.997792 0.07834,-2.036965 0.07834,-4.465654 0,-4.367723 -0.09793,-6.189239 -0.07834,-0.940138 -0.783448,-1.54731 -0.685517,-0.626759 -1.703999,-0.626759 -1.018482,0 -1.664827,0.646345 -0.646345,0.646344 -0.744276,1.684413 -0.03917,0.293793 -0.05876,0.587586 -0.01959,0.274207 -0.03917,0.705103 0,0.430897 0,1.253517 l 0.05876,7.521101 -0.01959,0.528828 q 0,1.410206 0.489655,2.271999 0.489655,0.861793 1.821516,0.861793 z m 9.753942,-0.03917 q 1.410207,0 2.722482,-0.685517 1.331862,-0.705103 2.174068,-2.056551 0.861793,-1.371034 0.861793,-3.388412 0,-0.607173 -0.215448,-1.136 -0.372138,-0.783448 -0.998896,-0.959724 -0.626759,-0.195862 -1.233931,-0.195862 h -0.430896 l -0.72469,0.05876 q -0.783448,0.07834 -1.214344,0.176276 -0.509241,0.156689 -0.861793,0.626758 -0.332965,0.470069 -0.332965,1.038069 0,0.646344 0.587586,1.194758 0.09793,0.07835 0.195862,0.25462 0.09793,0.176276 0.09793,0.352552 0,0.15669 -0.07834,0.235034 -0.07834,0.05876 -0.254621,0.09793 -0.352551,0 -0.783448,-0.626758 -0.41131,-0.705103 -0.41131,-1.880275 0,-0.822621 0.176276,-1.684413 0.195862,-0.88138 0.646344,-1.488552 0.450483,-0.607172 1.233931,-0.607172 0.587586,0 1.371034,0.528827 0.293793,0.176276 0.646345,0.176276 0.587586,0 1.077241,-0.430896 0.646344,-0.568 0.646344,-1.586482 0,-1.606069 -1.468965,-2.781241 -1.449379,-1.175172 -3.329654,-1.175172 -1.253517,0 -2.487447,0.685517 -1.233931,0.665931 -2.154482,2.213241 -1.429793,2.487447 -1.429793,5.30786 0,1.978206 0.665931,3.66262 0.665931,1.684413 1.782344,2.742068 0.724689,0.665931 1.625655,0.998896 0.920551,0.332965 1.899861,0.332965 z m 8.990066,0.03917 q 0.685517,0 1.29269,-0.254621 0.607172,-0.274207 0.97931,-0.97931 0.391724,-0.705103 0.391724,-1.997792 0.07834,-2.036965 0.07834,-4.465654 0,-4.367723 -0.09793,-6.189239 -0.07834,-0.940138 -0.783449,-1.54731 -0.685517,-0.626759 -1.703999,-0.626759 -1.018482,0 -1.664827,0.646345 -0.646345,0.646344 -0.744276,1.684413 -0.03917,0.293793 -0.05876,0.587586 -0.01959,0.274207 -0.03917,0.705103 0,0.430897 0,1.253517 l 0.05876,7.521101 -0.01959,0.528828 q 0,1.410206 0.489655,2.271999 0.489655,0.861793 1.821516,0.861793 z m 9.734367,0 q 1.077241,0 1.762758,-0.685517 0.705103,-0.705103 0.763862,-1.95862 l 0.01959,-3.153379 -0.01959,-2.879171 q 0,-1.449379 0.05876,-1.860689 0.01959,-0.254621 0.15669,-0.332966 0.137103,-0.09793 0.215448,-0.09793 0.568,0 1.233931,-0.05876 0.685517,-0.05876 1.194758,-0.332966 1.175172,-0.685517 1.175172,-2.409102 0,-0.998897 -0.528827,-1.508138 -0.528828,-0.528827 -1.175172,-0.705103 -0.646345,-0.176276 -1.038069,-0.176276 h -6.815998 q -1.038069,0 -1.997792,0.430897 -1.449379,0.646344 -1.449379,2.232827 0,0.842206 0.548413,1.468965 0.548414,0.626758 1.116414,0.842206 0.293793,0.117517 0.646344,0.176276 0.352552,0.03917 1.096828,0.03917 0.195862,0 0.391724,0.05876 0.215448,0.05876 0.235034,0.293793 0.137103,2.663723 0.137103,7.305653 v 0.861793 q 0,0.01959 0.07834,0.41131 0.07834,0.372138 0.313379,0.842207 0.235035,0.470068 0.685518,0.842206 0.450482,0.352552 1.194758,0.352552 z m 6.424279,0 q 0.783448,0 1.371034,-0.470069 0.587586,-0.489655 0.959724,-1.292689 0.03917,-0.117517 0.117517,-0.195862 0.07834,-0.07834 0.568,-0.07834 l 1.449379,0.01959 h 1.625654 q 0.470069,0 0.646345,0.450483 0.372138,0.744275 0.97931,1.116413 0.607172,0.352552 1.233931,0.352552 0.587586,0 1.077241,-0.274207 0.489655,-0.274207 0.763861,-0.803034 0.195863,-0.41131 0.195863,-0.822621 0,-0.509241 -0.372138,-1.449379 -0.509242,-1.331861 -1.723586,-5.033653 -0.861793,-2.565792 -1.508137,-4.308964 -0.646345,-1.762758 -1.155586,-2.409103 -0.72469,-0.803034 -1.684414,-0.803034 -0.82262,0 -1.488551,0.626758 -0.117517,0.117517 -0.215448,0.254621 -0.195862,0.274207 -0.724689,1.586482 -0.254621,0.587586 -4.132689,10.3611 -0.195862,0.509242 -0.195862,1.018483 0,0.626758 0.293793,1.253517 0.254621,0.509241 0.607172,0.66593 0.372138,0.137104 0.705104,0.176276 l 0.156689,0.01959 q 0.235035,0.03917 0.450483,0.03917 z m 4.465654,-5.993378 q -0.332966,0 -0.332966,-0.07834 0.09793,-0.195862 0.274207,-0.509242 0.176276,-0.313379 0.274207,-0.567999 0.05876,0 0.09793,0.01959 0.156689,0.470069 0.313379,0.763862 0.117517,0.215448 0.117517,0.293793 0,0.03917 -0.03917,0.03917 z m 12.946479,6.130481 q 2.076137,0 2.93793,-0.332965 0.881379,-0.352552 1.096827,-1.606069 l 0.01959,-0.470068 q 0,-1.214345 -0.72469,-1.684414 -0.724689,-0.470069 -1.939034,-0.509241 -1.194758,-0.05876 -1.743171,-0.07835 -0.31338,0 -0.489656,0 -0.156689,-0.01959 -0.215448,-0.03917 -0.03917,-0.01959 -0.03917,-0.07834 0.03917,-0.391724 0.05876,-2.154482 0.01959,-1.762758 0.01959,-2.918344 0,-1.175172 0.03917,-1.880275 v -0.626759 q 0.01959,-0.274206 0.01959,-0.450482 0,-0.176276 0.01959,-0.293793 v -0.274207 h 0.01959 Q 91.99408,33.380932 91.798218,32.77376 91.621943,32.147002 91.112701,31.696519 90.60346,31.22645 89.526219,31.22645 q -0.959724,0 -1.508137,0.430897 -0.528828,0.430896 -0.744276,1.057654 -0.215448,0.607173 -0.215448,1.194759 v 11.222893 q 0,0.998896 0.705103,1.586482 0.705103,0.587586 1.468965,0.587586 z"
       id="text2"
       style="font-size:19.5862px;line-height:0.9;font-family:Wedges;-inkscape-font-specification:Wedges;fill:#00bf63;stroke-width:0.737992"
       aria-label="digital" />
    <circle
       style="fill:none;fill-opacity:1;stroke:#f4f4f4;stroke-width:1.19614;stroke-dasharray:none;stroke-opacity:1"
       id="path2"
       cx="87.766228"
       cy="15.581982"
       r="12.327133" />
    <path
       style="fill:none;fill-opacity:1;stroke:#f4f4f4;stroke-width:1.32292;stroke-linecap:butt;stroke-linejoin:round;stroke-dasharray:none;stroke-opacity:1"
       id="path3"
       d="m 72.823393,50.104487 -0.169689,-7.380465 -0.169688,-7.380464 6.476515,3.543278 6.476514,3.543278 -6.306827,3.837187 z"
       transform="matrix(0.72075051,0.01716424,-0.01509758,0.81941281,32.219807,-20.158795)" />
  </g>
</svg>
